<mxfile host="65bd71144e">
    <diagram name="Page-1" id="6fTPj6johyOGFhswxjwW">
        <mxGraphModel dx="2354" dy="1762" grid="1" gridSize="10" guides="1" tooltips="1" connect="1" arrows="1" fold="1" page="1" pageScale="1" pageWidth="1654" pageHeight="1169" background="none" math="0" shadow="0">
            <root>
                <mxCell id="0"/>
                <mxCell id="1" parent="0"/>
                <mxCell id="56" style="edgeStyle=orthogonalEdgeStyle;rounded=1;html=1;exitX=0.5;exitY=1;exitDx=0;exitDy=0;entryX=0.5;entryY=0;entryDx=0;entryDy=0;strokeColor=default;fontFamily=Latin Modern Math;endArrow=classic;endFill=1;" parent="1" source="2" target="QiUH6YsVgR2l4slyrrlS-35" edge="1">
                    <mxGeometry relative="1" as="geometry"/>
                </mxCell>
                <mxCell id="60" style="edgeStyle=orthogonalEdgeStyle;rounded=1;html=1;exitX=1;exitY=0.5;exitDx=0;exitDy=0;entryX=0.25;entryY=0;entryDx=0;entryDy=0;strokeColor=default;fontFamily=Latin Modern Math;endArrow=classic;endFill=1;" parent="1" source="2" target="3" edge="1">
                    <mxGeometry relative="1" as="geometry"/>
                </mxCell>
                <mxCell id="2" value="Warm water&#10;temperature" style="rounded=0;absoluteArcSize=1;arcSize=14;whiteSpace=wrap;strokeWidth=2;fillColor=#a20025;fontColor=#ffffff;strokeColor=default;fontFamily=Latin Modern Math;rotation=0;" parent="1" vertex="1">
                    <mxGeometry x="-763" y="-444" width="120" height="60" as="geometry"/>
                </mxCell>
                <mxCell id="58" style="edgeStyle=orthogonalEdgeStyle;rounded=1;html=1;exitX=0.5;exitY=1;exitDx=0;exitDy=0;entryX=0.5;entryY=0;entryDx=0;entryDy=0;strokeColor=default;fontFamily=Latin Modern Math;endArrow=classic;endFill=1;" parent="1" source="3" target="QiUH6YsVgR2l4slyrrlS-28" edge="1">
                    <mxGeometry relative="1" as="geometry"/>
                </mxCell>
                <mxCell id="3" value="&lt;font&gt;Evaporation and condensation&lt;br&gt;temperatures and pressures&lt;/font&gt;" style="rounded=0;whiteSpace=wrap;html=1;fontFamily=Latin Modern Math;strokeColor=#2D7600;fillColor=#60a917;fontColor=#ffffff;" parent="1" vertex="1">
                    <mxGeometry x="-518.1" y="-394" width="217" height="46" as="geometry"/>
                </mxCell>
                <mxCell id="57" style="edgeStyle=orthogonalEdgeStyle;rounded=1;html=1;exitX=0.5;exitY=1;exitDx=0;exitDy=0;entryX=0.5;entryY=0;entryDx=0;entryDy=0;strokeColor=default;fontFamily=Latin Modern Math;endArrow=classic;endFill=1;" parent="1" source="QiUH6YsVgR2l4slyrrlS-20" target="QiUH6YsVgR2l4slyrrlS-42" edge="1">
                    <mxGeometry relative="1" as="geometry"/>
                </mxCell>
                <mxCell id="61" style="edgeStyle=orthogonalEdgeStyle;rounded=1;html=1;exitX=0;exitY=0.5;exitDx=0;exitDy=0;entryX=0.75;entryY=0;entryDx=0;entryDy=0;strokeColor=default;fontFamily=Latin Modern Math;endArrow=classic;endFill=1;" parent="1" source="QiUH6YsVgR2l4slyrrlS-20" target="3" edge="1">
                    <mxGeometry relative="1" as="geometry"/>
                </mxCell>
                <mxCell id="QiUH6YsVgR2l4slyrrlS-20" value="Cold Water&#10;temperature" style="rounded=0;absoluteArcSize=1;arcSize=14;whiteSpace=wrap;strokeWidth=2;fillColor=#1ba1e2;fontColor=#ffffff;strokeColor=default;fontFamily=Latin Modern Math;rotation=0;" parent="1" vertex="1">
                    <mxGeometry x="-130" y="-444" width="120" height="60" as="geometry"/>
                </mxCell>
                <mxCell id="91" style="edgeStyle=orthogonalEdgeStyle;rounded=1;jumpStyle=arc;html=1;exitX=0.5;exitY=1;exitDx=0;exitDy=0;entryX=0.5;entryY=0;entryDx=0;entryDy=0;strokeColor=default;fontFamily=Latin Modern Math;endArrow=classic;endFill=1;" parent="1" source="QiUH6YsVgR2l4slyrrlS-26" target="QiUH6YsVgR2l4slyrrlS-71" edge="1">
                    <mxGeometry relative="1" as="geometry"/>
                </mxCell>
                <mxCell id="QiUH6YsVgR2l4slyrrlS-26" value="Distance to shore" style="rounded=0;whiteSpace=wrap;html=1;fillColor=#9933FF;fontColor=#ffffff;strokeColor=default;fontFamily=Latin Modern Math;" parent="1" vertex="1">
                    <mxGeometry x="-1095" y="-444" width="120" height="60" as="geometry"/>
                </mxCell>
                <mxCell id="59" style="edgeStyle=orthogonalEdgeStyle;rounded=1;html=1;exitX=0.5;exitY=1;exitDx=0;exitDy=0;entryX=0.5;entryY=0;entryDx=0;entryDy=0;strokeColor=default;fontFamily=Latin Modern Math;endArrow=classic;endFill=1;" parent="1" source="QiUH6YsVgR2l4slyrrlS-28" target="QiUH6YsVgR2l4slyrrlS-30" edge="1">
                    <mxGeometry relative="1" as="geometry"/>
                </mxCell>
                <mxCell id="QiUH6YsVgR2l4slyrrlS-28" value="Enthalpies" style="rounded=0;whiteSpace=wrap;html=1;fillColor=#60a917;strokeColor=default;fontColor=#ffffff;fontFamily=Latin Modern Math;" parent="1" vertex="1">
                    <mxGeometry x="-470.07000000000005" y="-304" width="120" height="60" as="geometry"/>
                </mxCell>
                <mxCell id="62" style="edgeStyle=orthogonalEdgeStyle;rounded=1;html=1;exitX=0;exitY=0.5;exitDx=0;exitDy=0;entryX=0.75;entryY=0;entryDx=0;entryDy=0;strokeColor=default;fontFamily=Latin Modern Math;endArrow=classic;endFill=1;" parent="1" source="QiUH6YsVgR2l4slyrrlS-30" target="QiUH6YsVgR2l4slyrrlS-35" edge="1">
                    <mxGeometry relative="1" as="geometry"/>
                </mxCell>
                <mxCell id="63" style="edgeStyle=orthogonalEdgeStyle;rounded=1;html=1;exitX=1;exitY=0.5;exitDx=0;exitDy=0;entryX=0.25;entryY=0;entryDx=0;entryDy=0;strokeColor=default;fontFamily=Latin Modern Math;endArrow=classic;endFill=1;" parent="1" source="QiUH6YsVgR2l4slyrrlS-30" target="QiUH6YsVgR2l4slyrrlS-42" edge="1">
                    <mxGeometry relative="1" as="geometry"/>
                </mxCell>
                <mxCell id="64" style="edgeStyle=orthogonalEdgeStyle;rounded=1;html=1;exitX=0.5;exitY=1;exitDx=0;exitDy=0;entryX=0.5;entryY=0;entryDx=0;entryDy=0;strokeColor=default;fontFamily=Latin Modern Math;endArrow=classic;endFill=1;jumpStyle=arc;" parent="1" source="QiUH6YsVgR2l4slyrrlS-30" target="QiUH6YsVgR2l4slyrrlS-34" edge="1">
                    <mxGeometry relative="1" as="geometry"/>
                </mxCell>
                <mxCell id="QiUH6YsVgR2l4slyrrlS-30" value="Ammonia mass flow rate" style="rounded=0;whiteSpace=wrap;html=1;fillColor=#60a917;strokeColor=default;fontColor=#ffffff;fontFamily=Latin Modern Math;" parent="1" vertex="1">
                    <mxGeometry x="-456.1" y="-214" width="93" height="60" as="geometry"/>
                </mxCell>
                <mxCell id="97" style="edgeStyle=orthogonalEdgeStyle;rounded=1;jumpStyle=arc;html=1;exitX=0.5;exitY=1;exitDx=0;exitDy=0;strokeColor=default;fontFamily=Latin Modern Math;fontSize=12;fontColor=#ffffff;endArrow=classic;endFill=1;" parent="1" source="QiUH6YsVgR2l4slyrrlS-34" target="QiUH6YsVgR2l4slyrrlS-77" edge="1">
                    <mxGeometry relative="1" as="geometry"/>
                </mxCell>
                <mxCell id="106" style="edgeStyle=orthogonalEdgeStyle;rounded=1;jumpStyle=arc;html=1;exitX=0;exitY=0.5;exitDx=0;exitDy=0;entryX=0.5;entryY=0;entryDx=0;entryDy=0;strokeColor=default;fontFamily=Latin Modern Math;fontSize=12;fontColor=#ffffff;endArrow=classic;endFill=1;" parent="1" source="QiUH6YsVgR2l4slyrrlS-34" target="QiUH6YsVgR2l4slyrrlS-76" edge="1">
                    <mxGeometry relative="1" as="geometry">
                        <Array as="points">
                            <mxPoint x="-620" y="120"/>
                            <mxPoint x="-620" y="440"/>
                            <mxPoint x="-413" y="440"/>
                        </Array>
                    </mxGeometry>
                </mxCell>
                <mxCell id="QiUH6YsVgR2l4slyrrlS-34" value="Ammonia pump&lt;br&gt;sizing" style="rounded=0;whiteSpace=wrap;html=1;fillColor=#60a917;strokeColor=default;fontColor=#ffffff;fontFamily=Latin Modern Math;" parent="1" vertex="1">
                    <mxGeometry x="-470.07" y="90" width="120" height="60" as="geometry"/>
                </mxCell>
                <mxCell id="66" style="edgeStyle=orthogonalEdgeStyle;rounded=1;html=1;exitX=0.5;exitY=1;exitDx=0;exitDy=0;strokeColor=default;fontFamily=Latin Modern Math;endArrow=classic;endFill=1;" parent="1" source="QiUH6YsVgR2l4slyrrlS-42" target="QiUH6YsVgR2l4slyrrlS-46" edge="1">
                    <mxGeometry relative="1" as="geometry"/>
                </mxCell>
                <mxCell id="75" style="edgeStyle=orthogonalEdgeStyle;rounded=1;html=1;exitX=0;exitY=0.5;exitDx=0;exitDy=0;entryX=1;entryY=0.5;entryDx=0;entryDy=0;strokeColor=default;fontFamily=Latin Modern Math;endArrow=classic;endFill=1;" parent="1" source="QiUH6YsVgR2l4slyrrlS-42" target="68" edge="1">
                    <mxGeometry relative="1" as="geometry"/>
                </mxCell>
                <mxCell id="QiUH6YsVgR2l4slyrrlS-42" value="Condenser sizing" style="rounded=0;whiteSpace=wrap;html=1;fillColor=#1ba1e2;fontColor=#ffffff;strokeColor=default;fontFamily=Latin Modern Math;" parent="1" vertex="1">
                    <mxGeometry x="-130" y="-80" width="120" height="60" as="geometry"/>
                </mxCell>
                <mxCell id="88" style="edgeStyle=orthogonalEdgeStyle;rounded=1;jumpStyle=arc;html=1;exitX=1;exitY=0.5;exitDx=0;exitDy=0;entryX=0;entryY=0.5;entryDx=0;entryDy=0;strokeColor=default;fontFamily=Latin Modern Math;endArrow=classic;endFill=1;" parent="1" source="QiUH6YsVgR2l4slyrrlS-43" target="QiUH6YsVgR2l4slyrrlS-79" edge="1">
                    <mxGeometry relative="1" as="geometry"/>
                </mxCell>
                <mxCell id="89" style="edgeStyle=orthogonalEdgeStyle;rounded=1;jumpStyle=arc;html=1;exitX=0.75;exitY=1;exitDx=0;exitDy=0;entryX=0;entryY=0.5;entryDx=0;entryDy=0;strokeColor=default;fontFamily=Latin Modern Math;endArrow=classic;endFill=1;" parent="1" source="QiUH6YsVgR2l4slyrrlS-43" target="QiUH6YsVgR2l4slyrrlS-78" edge="1">
                    <mxGeometry relative="1" as="geometry"/>
                </mxCell>
                <mxCell id="104" style="edgeStyle=orthogonalEdgeStyle;rounded=1;jumpStyle=arc;html=1;exitX=0.25;exitY=1;exitDx=0;exitDy=0;entryX=0.25;entryY=0;entryDx=0;entryDy=0;strokeColor=default;fontFamily=Latin Modern Math;fontSize=12;fontColor=#ffffff;endArrow=classic;endFill=1;" parent="1" source="QiUH6YsVgR2l4slyrrlS-43" target="QiUH6YsVgR2l4slyrrlS-45" edge="1">
                    <mxGeometry relative="1" as="geometry"/>
                </mxCell>
                <mxCell id="QiUH6YsVgR2l4slyrrlS-43" value="Warm water pump &lt;br&gt;sizing" style="rounded=0;whiteSpace=wrap;html=1;fillColor=#a20025;fontColor=#ffffff;strokeColor=default;fontFamily=Latin Modern Math;rotation=0;" parent="1" vertex="1">
                    <mxGeometry x="-763" y="170" width="120" height="60" as="geometry"/>
                </mxCell>
                <mxCell id="105" style="edgeStyle=orthogonalEdgeStyle;rounded=1;jumpStyle=arc;html=1;exitX=0;exitY=0.5;exitDx=0;exitDy=0;entryX=1;entryY=0.5;entryDx=0;entryDy=0;strokeColor=default;fontFamily=Latin Modern Math;fontSize=12;fontColor=#ffffff;endArrow=classic;endFill=1;" parent="1" source="QiUH6YsVgR2l4slyrrlS-44" target="QiUH6YsVgR2l4slyrrlS-99" edge="1">
                    <mxGeometry relative="1" as="geometry"/>
                </mxCell>
                <mxCell id="QiUH6YsVgR2l4slyrrlS-44" value="Cold water pipe &lt;br&gt;sizing" style="rounded=0;whiteSpace=wrap;html=1;fillColor=#1ba1e2;fontColor=#ffffff;strokeColor=default;fontFamily=Latin Modern Math;rotation=0;" parent="1" vertex="1">
                    <mxGeometry x="-130" y="780" width="120" height="60" as="geometry"/>
                </mxCell>
                <mxCell id="101" style="edgeStyle=orthogonalEdgeStyle;rounded=1;jumpStyle=arc;html=1;exitX=1;exitY=0.5;exitDx=0;exitDy=0;entryX=0;entryY=0.5;entryDx=0;entryDy=0;strokeColor=default;fontFamily=Latin Modern Math;fontSize=12;fontColor=#ffffff;endArrow=classic;endFill=1;" parent="1" source="QiUH6YsVgR2l4slyrrlS-45" target="QiUH6YsVgR2l4slyrrlS-85" edge="1">
                    <mxGeometry relative="1" as="geometry"/>
                </mxCell>
                <mxCell id="QiUH6YsVgR2l4slyrrlS-45" value="Warm water pipe &lt;br&gt;sizing" style="rounded=0;whiteSpace=wrap;html=1;fillColor=#a20025;fontColor=#ffffff;strokeColor=default;fontFamily=Latin Modern Math;rotation=0;" parent="1" vertex="1">
                    <mxGeometry x="-763" y="780" width="120" height="60" as="geometry"/>
                </mxCell>
                <mxCell id="82" style="edgeStyle=orthogonalEdgeStyle;rounded=1;jumpStyle=arc;html=1;exitX=0;exitY=0.5;exitDx=0;exitDy=0;entryX=1;entryY=0.5;entryDx=0;entryDy=0;strokeColor=default;fontFamily=Latin Modern Math;endArrow=classic;endFill=1;" parent="1" source="QiUH6YsVgR2l4slyrrlS-46" target="QiUH6YsVgR2l4slyrrlS-102" edge="1">
                    <mxGeometry relative="1" as="geometry"/>
                </mxCell>
                <mxCell id="102" style="edgeStyle=orthogonalEdgeStyle;rounded=1;jumpStyle=arc;html=1;exitX=0.25;exitY=1;exitDx=0;exitDy=0;entryX=1;entryY=0.5;entryDx=0;entryDy=0;strokeColor=default;fontFamily=Latin Modern Math;fontSize=12;fontColor=#ffffff;endArrow=classic;endFill=1;" parent="1" source="QiUH6YsVgR2l4slyrrlS-46" target="QiUH6YsVgR2l4slyrrlS-101" edge="1">
                    <mxGeometry relative="1" as="geometry"/>
                </mxCell>
                <mxCell id="103" style="edgeStyle=orthogonalEdgeStyle;rounded=1;jumpStyle=arc;html=1;exitX=0.75;exitY=1;exitDx=0;exitDy=0;entryX=0.75;entryY=0;entryDx=0;entryDy=0;strokeColor=default;fontFamily=Latin Modern Math;fontSize=12;fontColor=#ffffff;endArrow=classic;endFill=1;" parent="1" source="QiUH6YsVgR2l4slyrrlS-46" target="QiUH6YsVgR2l4slyrrlS-44" edge="1">
                    <mxGeometry relative="1" as="geometry"/>
                </mxCell>
                <mxCell id="QiUH6YsVgR2l4slyrrlS-46" value="Cold water pump &lt;br&gt;sizing" style="rounded=0;whiteSpace=wrap;html=1;fillColor=#1ba1e2;fontColor=#ffffff;strokeColor=default;fontFamily=Latin Modern Math;" parent="1" vertex="1">
                    <mxGeometry x="-130" y="170" width="120" height="60" as="geometry"/>
                </mxCell>
                <mxCell id="92" style="edgeStyle=orthogonalEdgeStyle;rounded=1;jumpStyle=arc;html=1;exitX=0.5;exitY=1;exitDx=0;exitDy=0;strokeColor=default;fontFamily=Latin Modern Math;endArrow=classic;endFill=1;" parent="1" source="QiUH6YsVgR2l4slyrrlS-71" target="QiUH6YsVgR2l4slyrrlS-92" edge="1">
                    <mxGeometry relative="1" as="geometry"/>
                </mxCell>
                <mxCell id="QiUH6YsVgR2l4slyrrlS-71" value="Cable sizing" style="rounded=0;whiteSpace=wrap;html=1;fillColor=#9933FF;fontColor=#ffffff;strokeColor=default;fontFamily=Latin Modern Math;" parent="1" vertex="1">
                    <mxGeometry x="-1095" y="-300" width="120" height="60" as="geometry"/>
                </mxCell>
                <mxCell id="QiUH6YsVgR2l4slyrrlS-76" value="Amminia pump &lt;br&gt;consumption " style="rounded=0;whiteSpace=wrap;html=1;fillColor=#60a917;strokeColor=#FFFFFF;fontColor=#ffffff;fontFamily=Latin Modern Math;" parent="1" vertex="1">
                    <mxGeometry x="-473.07" y="525" width="120" height="60" as="geometry"/>
                </mxCell>
                <mxCell id="QiUH6YsVgR2l4slyrrlS-78" value="Warm water pump &lt;br&gt;consumption " style="rounded=0;whiteSpace=wrap;html=1;fillColor=#a20025;fontColor=#ffffff;strokeColor=default;fontFamily=Latin Modern Math;rotation=0;" parent="1" vertex="1">
                    <mxGeometry x="-540.13" y="610" width="120" height="60" as="geometry"/>
                </mxCell>
                <mxCell id="QiUH6YsVgR2l4slyrrlS-92" value="Cable CAPEX" style="rounded=1;whiteSpace=wrap;html=1;fontFamily=Latin Modern Math;strokeWidth=2;fillColor=#9933FF;fontColor=#ffffff;strokeColor=#FFFFFF;" parent="1" vertex="1">
                    <mxGeometry x="-1095" y="331" width="120" height="60" as="geometry"/>
                </mxCell>
                <mxCell id="165" value="" style="edgeStyle=none;html=1;" edge="1" parent="1" source="QiUH6YsVgR2l4slyrrlS-101" target="QiUH6YsVgR2l4slyrrlS-78">
                    <mxGeometry relative="1" as="geometry"/>
                </mxCell>
                <mxCell id="167" value="" style="edgeStyle=none;html=1;" edge="1" parent="1" source="QiUH6YsVgR2l4slyrrlS-101" target="QiUH6YsVgR2l4slyrrlS-78">
                    <mxGeometry relative="1" as="geometry"/>
                </mxCell>
                <mxCell id="169" value="" style="edgeStyle=orthogonalEdgeStyle;html=1;" edge="1" parent="1" source="QiUH6YsVgR2l4slyrrlS-101" target="QiUH6YsVgR2l4slyrrlS-78">
                    <mxGeometry relative="1" as="geometry"/>
                </mxCell>
                <mxCell id="QiUH6YsVgR2l4slyrrlS-101" value="Cold water pump &lt;br&gt;consumption " style="rounded=0;whiteSpace=wrap;html=1;fillColor=#1ba1e2;fontColor=#ffffff;strokeColor=#FFFFFF;fontFamily=Latin Modern Math;rotation=0;" parent="1" vertex="1">
                    <mxGeometry x="-400.13" y="610" width="120" height="60" as="geometry"/>
                </mxCell>
                <mxCell id="QiUH6YsVgR2l4slyrrlS-77" value="Ammonia pump &lt;br&gt;CAPEX" style="rounded=1;whiteSpace=wrap;html=1;fontFamily=Latin Modern Math;strokeWidth=2;fillColor=#60a917;fontColor=#ffffff;strokeColor=#FFFFFF;" parent="1" vertex="1">
                    <mxGeometry x="-473.07" y="260" width="126" height="55" as="geometry"/>
                </mxCell>
                <mxCell id="166" value="" style="edgeStyle=none;html=1;" edge="1" parent="1" source="QiUH6YsVgR2l4slyrrlS-79" target="QiUH6YsVgR2l4slyrrlS-102">
                    <mxGeometry relative="1" as="geometry"/>
                </mxCell>
                <mxCell id="QiUH6YsVgR2l4slyrrlS-79" value="Warm water pump &lt;br&gt;CAPEX" style="rounded=1;whiteSpace=wrap;html=1;fontFamily=Latin Modern Math;strokeWidth=2;fillColor=#a20025;fontColor=#ffffff;strokeColor=default;rotation=0;" parent="1" vertex="1">
                    <mxGeometry x="-540.13" y="340" width="120" height="60" as="geometry"/>
                </mxCell>
                <mxCell id="QiUH6YsVgR2l4slyrrlS-85" value="Warm water pipe &lt;br&gt;CAPEX" style="rounded=1;whiteSpace=wrap;html=1;fontFamily=Latin Modern Math;strokeWidth=2;fillColor=#a20025;fontColor=#ffffff;strokeColor=default;rotation=0;" parent="1" vertex="1">
                    <mxGeometry x="-540.13" y="780" width="120" height="60" as="geometry"/>
                </mxCell>
                <mxCell id="QiUH6YsVgR2l4slyrrlS-99" value="Cold water pipe &lt;br&gt;CAPEX" style="rounded=1;whiteSpace=wrap;html=1;fontFamily=Latin Modern Math;strokeWidth=2;fillColor=#1ba1e2;fontColor=#ffffff;strokeColor=#FFFFFF;rotation=0;" parent="1" vertex="1">
                    <mxGeometry x="-390" y="780" width="120" height="60" as="geometry"/>
                </mxCell>
                <mxCell id="139" style="edgeStyle=orthogonalEdgeStyle;rounded=1;jumpStyle=arc;html=1;exitX=0.5;exitY=1;exitDx=0;exitDy=0;entryX=0;entryY=0.5;entryDx=0;entryDy=0;strokeColor=default;fontFamily=Latin Modern Math;fontSize=12;fontColor=#ffffff;endArrow=classic;endFill=1;" parent="1" source="23" target="130" edge="1">
                    <mxGeometry relative="1" as="geometry"/>
                </mxCell>
                <mxCell id="23" value="Turbine CAPEX" style="rounded=1;whiteSpace=wrap;html=1;fontFamily=Latin Modern Math;strokeWidth=2;fillColor=#f5f5f5;strokeColor=#666666;fontColor=#333333;" parent="1" vertex="1">
                    <mxGeometry x="-1565" y="360.5" width="120" height="60" as="geometry"/>
                </mxCell>
                <mxCell id="30" value="Mooring CAPEX" style="rounded=1;whiteSpace=wrap;html=1;fontFamily=Latin Modern Math;strokeWidth=2;fillColor=#f5f5f5;strokeColor=#666666;fontColor=#333333;" parent="1" vertex="1">
                    <mxGeometry x="-1311" y="160" width="120" height="60" as="geometry"/>
                </mxCell>
                <mxCell id="32" value="Deployment CAPEX" style="rounded=1;whiteSpace=wrap;html=1;fontFamily=Latin Modern Math;strokeWidth=2;fillColor=#f5f5f5;strokeColor=#666666;fontColor=#333333;" parent="1" vertex="1">
                    <mxGeometry x="-1235" y="331" width="120" height="60" as="geometry"/>
                </mxCell>
                <mxCell id="33" value="Management CAPEX" style="rounded=1;whiteSpace=wrap;html=1;fontFamily=Latin Modern Math;strokeWidth=2;fillColor=#f5f5f5;strokeColor=#666666;fontColor=#333333;" parent="1" vertex="1">
                    <mxGeometry x="-1235" y="411" width="120" height="60" as="geometry"/>
                </mxCell>
                <mxCell id="34" value="Extra CAPEX" style="rounded=1;whiteSpace=wrap;html=1;fontFamily=Latin Modern Math;strokeWidth=2;fillColor=#f5f5f5;strokeColor=#666666;fontColor=#333333;" parent="1" vertex="1">
                    <mxGeometry x="-1095" y="411" width="120" height="60" as="geometry"/>
                </mxCell>
                <mxCell id="45" style="edgeStyle=orthogonalEdgeStyle;html=1;exitX=0;exitY=0.5;exitDx=0;exitDy=0;fontFamily=Latin Modern Math;entryX=0.5;entryY=0;entryDx=0;entryDy=0;strokeColor=default;" parent="1" source="39" target="23" edge="1">
                    <mxGeometry relative="1" as="geometry">
                        <mxPoint x="-1575" y="10" as="targetPoint"/>
                    </mxGeometry>
                </mxCell>
                <mxCell id="90" style="edgeStyle=orthogonalEdgeStyle;rounded=1;jumpStyle=arc;html=1;exitX=1;exitY=0.5;exitDx=0;exitDy=0;entryX=0;entryY=0.25;entryDx=0;entryDy=0;strokeColor=default;fontFamily=Latin Modern Math;endArrow=classic;endFill=1;" parent="1" source="39" target="QiUH6YsVgR2l4slyrrlS-30" edge="1">
                    <mxGeometry relative="1" as="geometry"/>
                </mxCell>
                <mxCell id="135" style="edgeStyle=orthogonalEdgeStyle;rounded=1;jumpStyle=arc;html=1;exitX=0.5;exitY=1;exitDx=0;exitDy=0;exitPerimeter=0;entryX=0.5;entryY=0;entryDx=0;entryDy=0;strokeColor=default;fontFamily=Latin Modern Math;fontSize=12;fontColor=#ffffff;endArrow=classic;endFill=1;" parent="1" source="39" target="134" edge="1">
                    <mxGeometry relative="1" as="geometry"/>
                </mxCell>
                <mxCell id="137" style="edgeStyle=orthogonalEdgeStyle;rounded=1;jumpStyle=arc;html=1;exitX=0.86;exitY=0.85;exitDx=0;exitDy=0;exitPerimeter=0;entryX=0.5;entryY=0;entryDx=0;entryDy=0;strokeColor=default;fontFamily=Latin Modern Math;fontSize=12;fontColor=#ffffff;endArrow=classic;endFill=1;" parent="1" source="39" target="136" edge="1">
                    <mxGeometry relative="1" as="geometry"/>
                </mxCell>
                <mxCell id="150" style="edgeStyle=orthogonalEdgeStyle;rounded=1;jumpStyle=arc;html=1;exitX=0.94;exitY=0.7;exitDx=0;exitDy=0;exitPerimeter=0;entryX=0.5;entryY=0;entryDx=0;entryDy=0;entryPerimeter=0;strokeColor=default;fontFamily=Latin Modern Math;fontSize=12;fontColor=#ffffff;endArrow=classic;endFill=1;" parent="1" source="39" target="146" edge="1">
                    <mxGeometry relative="1" as="geometry"/>
                </mxCell>
                <mxCell id="39" value="&lt;font style=&quot;font-size: 25px;&quot;&gt;P&lt;sub&gt;gross&lt;/sub&gt;&lt;/font&gt;" style="ellipse;shape=doubleEllipse;whiteSpace=wrap;html=1;strokeWidth=2;fontFamily=Latin Modern Math;strokeColor=default;points=[[0,0.5,0,0,0],[0.06,0.7,0,0,0],[0.14,0.15,0,0,0],[0.14,0.85,0,0,0],[0.29,0.95,0,0,0],[0.5,0,0,0,0],[0.5,1,0,0,0],[0.71,0.95,0,0,0],[0.86,0.15,0,0,0],[0.86,0.85,0,0,0],[0.94,0.7,0,0,0],[1,0.5,0,0,0]];" parent="1" vertex="1">
                    <mxGeometry x="-1401" y="-260" width="160" height="120" as="geometry"/>
                </mxCell>
                <mxCell id="52" style="edgeStyle=orthogonalEdgeStyle;html=1;exitX=0.5;exitY=1;exitDx=0;exitDy=0;fontFamily=Latin Modern Math;endArrow=classic;endFill=1;strokeColor=default;" parent="1" source="40" target="46" edge="1">
                    <mxGeometry relative="1" as="geometry"/>
                </mxCell>
                <mxCell id="40" value="&lt;span style=&quot;font-size: 25px;&quot;&gt;Location&lt;/span&gt;" style="ellipse;shape=doubleEllipse;whiteSpace=wrap;html=1;strokeWidth=2;fontFamily=Latin Modern Math;strokeColor=default;" parent="1" vertex="1">
                    <mxGeometry x="-489.13" y="-810" width="160" height="120" as="geometry"/>
                </mxCell>
                <mxCell id="65" style="edgeStyle=orthogonalEdgeStyle;rounded=1;html=1;exitX=0.5;exitY=1;exitDx=0;exitDy=0;entryX=0.5;entryY=0;entryDx=0;entryDy=0;strokeColor=default;fontFamily=Latin Modern Math;endArrow=classic;endFill=1;" parent="1" source="QiUH6YsVgR2l4slyrrlS-35" target="QiUH6YsVgR2l4slyrrlS-43" edge="1">
                    <mxGeometry relative="1" as="geometry"/>
                </mxCell>
                <mxCell id="100" style="edgeStyle=orthogonalEdgeStyle;rounded=1;jumpStyle=arc;html=1;exitX=1;exitY=0.5;exitDx=0;exitDy=0;entryX=0;entryY=0.5;entryDx=0;entryDy=0;strokeColor=default;fontFamily=Latin Modern Math;fontSize=12;fontColor=#ffffff;endArrow=classic;endFill=1;" parent="1" source="QiUH6YsVgR2l4slyrrlS-35" target="67" edge="1">
                    <mxGeometry relative="1" as="geometry"/>
                </mxCell>
                <mxCell id="QiUH6YsVgR2l4slyrrlS-35" value="Evaporator sizing" style="rounded=0;whiteSpace=wrap;html=1;fillColor=#a20025;fontColor=#ffffff;strokeColor=default;fontFamily=Latin Modern Math;rotation=0;" parent="1" vertex="1">
                    <mxGeometry x="-763" y="-80" width="120" height="60" as="geometry"/>
                </mxCell>
                <mxCell id="67" value="Evaporator CAPEX" style="rounded=1;whiteSpace=wrap;html=1;fontFamily=Latin Modern Math;strokeWidth=2;fillColor=#a20025;fontColor=#ffffff;strokeColor=default;" parent="1" vertex="1">
                    <mxGeometry x="-540.13" y="-80" width="120" height="60" as="geometry"/>
                </mxCell>
                <mxCell id="68" value="Condenser CAPEX" style="rounded=1;whiteSpace=wrap;html=1;fontFamily=Latin Modern Math;strokeWidth=2;fillColor=#1ba1e2;fontColor=#ffffff;strokeColor=#FFFFFF;" parent="1" vertex="1">
                    <mxGeometry x="-400.13" y="-80" width="120" height="60" as="geometry"/>
                </mxCell>
                <mxCell id="QiUH6YsVgR2l4slyrrlS-102" value="Cold water pump &lt;br&gt;CAPEX" style="rounded=1;whiteSpace=wrap;html=1;fontFamily=Latin Modern Math;strokeWidth=2;fillColor=#1ba1e2;fontColor=#ffffff;strokeColor=#FFFFFF;rotation=0;" parent="1" vertex="1">
                    <mxGeometry x="-400.13" y="340" width="120" height="60" as="geometry"/>
                </mxCell>
                <mxCell id="94" style="edgeStyle=orthogonalEdgeStyle;rounded=1;jumpStyle=arc;html=1;exitX=0;exitY=0.5;exitDx=0;exitDy=0;entryX=0.5;entryY=0;entryDx=0;entryDy=0;strokeColor=default;fontFamily=Latin Modern Math;fontSize=12;fontColor=#ffffff;endArrow=classic;endFill=1;" parent="1" source="46" target="QiUH6YsVgR2l4slyrrlS-26" edge="1">
                    <mxGeometry relative="1" as="geometry"/>
                </mxCell>
                <mxCell id="95" style="edgeStyle=orthogonalEdgeStyle;rounded=1;jumpStyle=arc;html=1;exitX=0.15;exitY=0.95;exitDx=0;exitDy=0;exitPerimeter=0;entryX=0.5;entryY=0;entryDx=0;entryDy=0;strokeColor=default;fontFamily=Latin Modern Math;fontSize=12;fontColor=#ffffff;endArrow=classic;endFill=1;" parent="1" source="46" target="2" edge="1">
                    <mxGeometry relative="1" as="geometry"/>
                </mxCell>
                <mxCell id="96" style="edgeStyle=orthogonalEdgeStyle;rounded=1;jumpStyle=arc;html=1;exitX=0.85;exitY=0.95;exitDx=0;exitDy=0;exitPerimeter=0;entryX=0.5;entryY=0;entryDx=0;entryDy=0;strokeColor=default;fontFamily=Latin Modern Math;fontSize=12;fontColor=#ffffff;endArrow=classic;endFill=1;" parent="1" source="46" target="QiUH6YsVgR2l4slyrrlS-20" edge="1">
                    <mxGeometry relative="1" as="geometry"/>
                </mxCell>
                <mxCell id="46" value="Copernicus Marine Database" style="shape=datastore;whiteSpace=wrap;html=1;fontFamily=Latin Modern Math;strokeColor=default;strokeWidth=2;" parent="1" vertex="1">
                    <mxGeometry x="-462.1" y="-600" width="105" height="110" as="geometry"/>
                </mxCell>
                <mxCell id="159" style="edgeStyle=orthogonalEdgeStyle;html=1;exitX=0.25;exitY=1;exitDx=0;exitDy=0;entryX=0.71;entryY=0.05;entryDx=0;entryDy=0;entryPerimeter=0;jumpStyle=arc;" parent="1" source="122" target="130" edge="1">
                    <mxGeometry relative="1" as="geometry">
                        <Array as="points">
                            <mxPoint x="-480" y="40"/>
                            <mxPoint x="-800" y="40"/>
                            <mxPoint x="-800" y="500"/>
                            <mxPoint x="-1333" y="500"/>
                        </Array>
                    </mxGeometry>
                </mxCell>
                <mxCell id="122" value="Heat Exhangers CAPEX" style="swimlane;rounded=1;strokeWidth=2;fontFamily=Latin Modern Math;fontSize=12;html=1;startSize=23;fillColor=#E3C800;fontColor=#000000;" parent="1" vertex="1">
                    <mxGeometry x="-550" y="-114" width="280" height="104" as="geometry"/>
                </mxCell>
                <mxCell id="132" style="edgeStyle=orthogonalEdgeStyle;rounded=1;jumpStyle=arc;html=1;exitX=0;exitY=0.5;exitDx=0;exitDy=0;entryX=1;entryY=0;entryDx=0;entryDy=0;strokeColor=default;fontFamily=Latin Modern Math;fontSize=12;fontColor=#ffffff;endArrow=classic;endFill=1;" parent="1" source="123" target="130" edge="1">
                    <mxGeometry relative="1" as="geometry">
                        <Array as="points">
                            <mxPoint x="-870" y="311"/>
                            <mxPoint x="-870" y="530"/>
                            <mxPoint x="-1254" y="530"/>
                        </Array>
                    </mxGeometry>
                </mxCell>
                <mxCell id="123" value="Pumps CAPEX" style="swimlane;rounded=1;strokeColor=default;strokeWidth=2;fontFamily=Latin Modern Math;fontSize=12;fillColor=#E3C800;html=1;startSize=23;fontColor=#000000;" parent="1" vertex="1">
                    <mxGeometry x="-553.62" y="211" width="287.1" height="199" as="geometry"/>
                </mxCell>
                <mxCell id="151" style="edgeStyle=orthogonalEdgeStyle;rounded=1;jumpStyle=arc;html=1;exitX=0.5;exitY=1;exitDx=0;exitDy=0;entryX=0.86;entryY=0.15;entryDx=0;entryDy=0;entryPerimeter=0;strokeColor=default;fontFamily=Latin Modern Math;fontSize=12;fontColor=#ffffff;endArrow=classic;endFill=1;" parent="1" source="124" target="146" edge="1">
                    <mxGeometry relative="1" as="geometry">
                        <Array as="points">
                            <mxPoint x="-411" y="720"/>
                            <mxPoint x="-785" y="720"/>
                        </Array>
                    </mxGeometry>
                </mxCell>
                <mxCell id="124" value="Pumps power consumption" style="swimlane;rounded=1;strokeColor=default;strokeWidth=2;fontFamily=Latin Modern Math;fontSize=12;fillColor=#E3C800;html=1;startSize=23;fontColor=#000000;" parent="1" vertex="1">
                    <mxGeometry x="-560" y="490" width="298.12" height="200" as="geometry"/>
                </mxCell>
                <mxCell id="131" style="edgeStyle=orthogonalEdgeStyle;rounded=1;jumpStyle=arc;html=1;exitX=0.5;exitY=1;exitDx=0;exitDy=0;entryX=1;entryY=0.5;entryDx=0;entryDy=0;strokeColor=default;fontFamily=Latin Modern Math;fontSize=12;fontColor=#ffffff;endArrow=classic;endFill=1;" parent="1" source="125" target="130" edge="1">
                    <mxGeometry relative="1" as="geometry"/>
                </mxCell>
                <mxCell id="125" value="Pipes CAPEX" style="swimlane;rounded=1;strokeColor=default;strokeWidth=2;fontFamily=Latin Modern Math;fontSize=12;fillColor=#E3C800;html=1;startSize=23;fontColor=#000000;" parent="1" vertex="1">
                    <mxGeometry x="-548.98" y="750" width="287.1" height="104" as="geometry"/>
                </mxCell>
                <mxCell id="128" value="Platform CAPEX" style="rounded=1;whiteSpace=wrap;html=1;fontFamily=Latin Modern Math;strokeWidth=2;fillColor=#f5f5f5;strokeColor=#666666;fontColor=#333333;" parent="1" vertex="1">
                    <mxGeometry x="-1445" y="160" width="120" height="60" as="geometry"/>
                </mxCell>
                <mxCell id="153" style="edgeStyle=orthogonalEdgeStyle;rounded=1;jumpStyle=arc;html=1;exitX=0.5;exitY=1;exitDx=0;exitDy=0;entryX=0.5;entryY=0;entryDx=0;entryDy=0;strokeColor=default;fontFamily=Latin Modern Math;fontSize=12;fontColor=#ffffff;endArrow=classic;endFill=1;" parent="1" source="130" target="141" edge="1">
                    <mxGeometry relative="1" as="geometry"/>
                </mxCell>
                <mxCell id="168" style="edgeStyle=orthogonalEdgeStyle;html=1;exitX=0.78;exitY=0.91;exitDx=0;exitDy=0;exitPerimeter=0;entryX=0.5;entryY=0;entryDx=0;entryDy=0;entryPerimeter=0;" edge="1" parent="1" source="130" target="154">
                    <mxGeometry relative="1" as="geometry"/>
                </mxCell>
                <mxCell id="130" value="&lt;font style=&quot;font-size: 25px;&quot;&gt;Total CAPEX&lt;/font&gt;" style="ellipse;whiteSpace=wrap;html=1;rounded=1;strokeWidth=2;fontFamily=Latin Modern Math;fontSize=12;rotation=0;fillColor=#e3c800;fontColor=#000000;strokeColor=#B09500;points=[[0,0.5,0,0,0],[0.14,0.15,0,0,0],[0.31,0.05,0,0,0],[0.5,0,0,0,0],[0.5,1,0,0,0],[0.71,0.05,0,0,0],[0.78,0.91,0,0,0],[0.86,0.15,0,0,0],[1,0.5,0,0,0]];" parent="1" vertex="1">
                    <mxGeometry x="-1461" y="610" width="180" height="120" as="geometry"/>
                </mxCell>
                <mxCell id="138" style="edgeStyle=orthogonalEdgeStyle;rounded=1;jumpStyle=arc;html=1;exitX=0.5;exitY=1;exitDx=0;exitDy=0;entryX=0;entryY=0;entryDx=0;entryDy=0;strokeColor=default;fontFamily=Latin Modern Math;fontSize=12;fontColor=#ffffff;endArrow=classic;endFill=1;" parent="1" source="134" target="130" edge="1">
                    <mxGeometry relative="1" as="geometry"/>
                </mxCell>
                <mxCell id="134" value="Structure CAPEX" style="swimlane;rounded=1;strokeColor=default;strokeWidth=2;fontFamily=Latin Modern Math;fontSize=12;fillColor=#E3C800;html=1;startSize=23;fontColor=#000000;" parent="1" vertex="1">
                    <mxGeometry x="-1461" y="126" width="280" height="104" as="geometry"/>
                </mxCell>
                <mxCell id="160" style="edgeStyle=orthogonalEdgeStyle;html=1;exitX=0.5;exitY=1;exitDx=0;exitDy=0;entryX=0.5;entryY=0;entryDx=0;entryDy=0;entryPerimeter=0;jumpStyle=arc;" parent="1" source="136" target="130" edge="1">
                    <mxGeometry relative="1" as="geometry"/>
                </mxCell>
                <mxCell id="136" value="Other CAPEX" style="swimlane;rounded=1;strokeColor=default;strokeWidth=2;fontFamily=Latin Modern Math;fontSize=12;fillColor=#E3C800;html=1;startSize=23;fontColor=#000000;" parent="1" vertex="1">
                    <mxGeometry x="-1245" y="291" width="287.1" height="199" as="geometry">
                        <mxRectangle x="-1245" y="291" width="120" height="30" as="alternateBounds"/>
                    </mxGeometry>
                </mxCell>
                <mxCell id="157" style="edgeStyle=orthogonalEdgeStyle;rounded=1;jumpStyle=arc;html=1;exitX=1;exitY=0.5;exitDx=0;exitDy=0;entryX=0.14;entryY=0.15;entryDx=0;entryDy=0;entryPerimeter=0;strokeColor=default;fontFamily=Latin Modern Math;fontSize=12;fontColor=#ffffff;endArrow=classic;endFill=1;" parent="1" source="141" target="154" edge="1">
                    <mxGeometry relative="1" as="geometry"/>
                </mxCell>
                <mxCell id="141" value="&lt;font style=&quot;font-size: 25px;&quot;&gt;OPEX&lt;/font&gt;" style="ellipse;whiteSpace=wrap;html=1;rounded=1;strokeWidth=2;fontFamily=Latin Modern Math;fontSize=12;rotation=0;fillColor=#e3c800;fontColor=#000000;strokeColor=#B09500;" parent="1" vertex="1">
                    <mxGeometry x="-1461" y="770" width="180" height="120" as="geometry"/>
                </mxCell>
                <mxCell id="158" style="edgeStyle=orthogonalEdgeStyle;rounded=1;jumpStyle=arc;html=1;exitX=1;exitY=0.5;exitDx=0;exitDy=0;entryX=0;entryY=0.5;entryDx=0;entryDy=0;entryPerimeter=0;strokeColor=default;fontFamily=Latin Modern Math;fontSize=12;fontColor=#ffffff;endArrow=classic;endFill=1;" parent="1" source="142" target="154" edge="1">
                    <mxGeometry relative="1" as="geometry"/>
                </mxCell>
                <mxCell id="142" value="&lt;font color=&quot;#ffffff&quot;&gt;Economic/Design parameters&lt;/font&gt;" style="swimlane;rounded=1;strokeColor=#000000;strokeWidth=2;fontFamily=Latin Modern Math;fontSize=12;fillColor=#000099;html=1;startSize=23;fontColor=#000000;" parent="1" vertex="1">
                    <mxGeometry x="-1590" y="940" width="287.1" height="120" as="geometry"/>
                </mxCell>
                <mxCell id="163" value="&lt;font style=&quot;font-size: 12px;&quot;&gt;Design life&lt;/font&gt;" style="ellipse;shape=doubleEllipse;whiteSpace=wrap;html=1;strokeWidth=2;fontFamily=Latin Modern Math;strokeColor=default;points=[[0,0.5,0,0,0],[0.06,0.7,0,0,0],[0.14,0.15,0,0,0],[0.14,0.85,0,0,0],[0.29,0.95,0,0,0],[0.5,0,0,0,0],[0.5,1,0,0,0],[0.71,0.95,0,0,0],[0.86,0.15,0,0,0],[0.86,0.85,0,0,0],[0.94,0.7,0,0,0],[1,0.5,0,0,0]];" parent="142" vertex="1">
                    <mxGeometry x="19" y="30" width="110" height="80" as="geometry"/>
                </mxCell>
                <mxCell id="164" value="&lt;font style=&quot;font-size: 12px;&quot;&gt;Discount rate&lt;/font&gt;" style="ellipse;shape=doubleEllipse;whiteSpace=wrap;html=1;strokeWidth=2;fontFamily=Latin Modern Math;strokeColor=default;points=[[0,0.5,0,0,0],[0.06,0.7,0,0,0],[0.14,0.15,0,0,0],[0.14,0.85,0,0,0],[0.29,0.95,0,0,0],[0.5,0,0,0,0],[0.5,1,0,0,0],[0.71,0.95,0,0,0],[0.86,0.15,0,0,0],[0.86,0.85,0,0,0],[0.94,0.7,0,0,0],[1,0.5,0,0,0]];" parent="142" vertex="1">
                    <mxGeometry x="155" y="30" width="110" height="80" as="geometry"/>
                </mxCell>
                <mxCell id="155" style="edgeStyle=orthogonalEdgeStyle;rounded=1;jumpStyle=arc;html=1;exitX=0;exitY=0.5;exitDx=0;exitDy=0;exitPerimeter=0;entryX=1;entryY=0.5;entryDx=0;entryDy=0;entryPerimeter=0;strokeColor=default;fontFamily=Latin Modern Math;fontSize=12;fontColor=#ffffff;endArrow=classic;endFill=1;" parent="1" source="146" target="154" edge="1">
                    <mxGeometry relative="1" as="geometry"/>
                </mxCell>
                <mxCell id="146" value="&lt;font style=&quot;font-size: 25px;&quot;&gt;P&lt;/font&gt;&lt;font style=&quot;font-size: 20.8333px;&quot;&gt;net&lt;/font&gt;" style="ellipse;shape=doubleEllipse;whiteSpace=wrap;html=1;strokeWidth=2;fontFamily=Latin Modern Math;strokeColor=#B09500;points=[[0,0.5,0,0,0],[0.06,0.7,0,0,0],[0.14,0.15,0,0,0],[0.14,0.85,0,0,0],[0.29,0.95,0,0,0],[0.5,0,0,0,0],[0.5,1,0,0,0],[0.71,0.95,0,0,0],[0.86,0.15,0,0,0],[0.86,0.85,0,0,0],[0.94,0.7,0,0,0],[1,0.5,0,0,0]];fillStyle=auto;fillColor=#e3c800;fontColor=#000000;" parent="1" vertex="1">
                    <mxGeometry x="-923" y="930" width="160" height="120" as="geometry"/>
                </mxCell>
                <mxCell id="154" value="&lt;span style=&quot;font-size: 25px;&quot;&gt;LCOE&lt;/span&gt;" style="ellipse;shape=doubleEllipse;whiteSpace=wrap;html=1;strokeWidth=2;fontFamily=Latin Modern Math;strokeColor=#B09500;points=[[0,0.5,0,0,0],[0.06,0.7,0,0,0],[0.14,0.15,0,0,0],[0.14,0.85,0,0,0],[0.29,0.95,0,0,0],[0.5,0,0,0,0],[0.5,1,0,0,0],[0.71,0.95,0,0,0],[0.86,0.15,0,0,0],[0.86,0.85,0,0,0],[0.94,0.7,0,0,0],[1,0.5,0,0,0]];fillColor=#e3c800;fontColor=#000000;" parent="1" vertex="1">
                    <mxGeometry x="-1191" y="1010" width="160" height="120" as="geometry"/>
                </mxCell>
            </root>
        </mxGraphModel>
    </diagram>
</mxfile>